<svg version="1.1" viewBox="0 0 96 96" xmlns="http://www.w3.org/2000/svg" xmlns:xlink="http://www.w3.org/1999/xlink" id="Icons_Tools" overflow="hidden"><path d=" M 16.5 82.8 C 15.8 83.5 14.9 83.7 14 83.3 C 13.1 82.9 12.6 82.1 12.6 81.2 C 12.6 80.3 13.2 79.4 14 79.1 C 14.9 78.7 15.8 78.9 16.5 79.6 C 17.4 80.4 17.4 81.9 16.5 82.8 Z M 87.1 16.9 L 79 25 L 72.6 23.3 L 71 17 L 79.1 8.9 C 74.3 7.1 68.9 8.2 65.1 11.6 C 61.3 15.1 59.8 20.3 61.1 25.3 L 10.1 76.3 C 8.3 78 7.6 80.6 8.2 83 C 8.8 85.4 10.7 87.3 13.1 87.9 C 15.5 88.5 18 87.8 19.8 86 L 70.8 35 C 75.8 36.3 81 34.8 84.5 31 C 87.9 27.2 89 21.7 87.1 16.9 Z"/><path d=" M 86.7 76.3 L 60.9 50.5 L 50.5 60.9 L 75.5 85.9 L 76.4 86.8 L 76.5 86.7 C 79.4 88.8 83.4 88.4 85.9 85.9 C 88.4 83.3 88.7 79.3 86.7 76.3 L 86.7 76.3 Z"/><path d=" M 22.6 19.8 L 22.7 19.7 L 20.1 14.9 L 11.5 8 L 8 11.5 L 14.9 20.1 L 19.7 22.7 L 19.8 22.6 L 38.9 41.7 L 41.7 38.9 Z"/></svg>